<?xml version="1.0" encoding="utf-8"?>
<!-- Generator: Adobe Illustrator 16.0.0, SVG Export Plug-In . SVG Version: 6.00 Build 0)  -->
<!DOCTYPE svg PUBLIC "-//W3C//DTD SVG 1.1//EN" "http://www.w3.org/Graphics/SVG/1.1/DTD/svg11.dtd">
<svg version="1.1" id="Layer_1" xmlns="http://www.w3.org/2000/svg" xmlns:xlink="http://www.w3.org/1999/xlink" x="0px" y="0px"
	 width="252px" height="60px" viewBox="0 0 252 60" enable-background="new 0 0 252 60" xml:space="preserve">
<g>
	<polygon fill="#333333" points="59.252,0 0,21.626 59.252,11.16 	"/>
	<polygon fill="#333333" points="9.506,47.015 20.345,47.015 20.345,40.723 9.506,40.723 9.506,35.775 21.496,35.775 17.519,28.883 
		0.518,28.883 0.518,58.854 24.495,58.854 24.495,51.96 9.506,51.96 	"/>
	<polygon fill="#333333" points="40.453,28.883 35.361,38.663 30.283,28.883 20.345,28.883 30.816,47.015 30.816,58.854 
		39.777,58.854 39.777,47.015 50.263,28.883 	"/>
</g>
<g>
	<path fill="#333333" d="M74.824,32.071c-0.141-0.27-0.275-0.472-0.404-0.606s-0.287-0.263-0.475-0.382
		c-0.188-0.121-0.396-0.213-0.624-0.277s-0.498-0.097-0.809-0.097c-0.475,0-0.895,0.099-1.261,0.294
		c-0.366,0.197-0.677,0.471-0.932,0.822s-0.448,0.771-0.58,1.262c-0.132,0.488-0.198,1.026-0.198,1.612
		c0,0.568,0.067,1.096,0.202,1.582s0.33,0.908,0.584,1.266s0.567,0.639,0.936,0.844s0.791,0.308,1.266,0.308
		c0.516,0,0.962-0.111,1.34-0.334S74.625,37.72,75,37.099l2.127,1.257c-0.217,0.445-0.475,0.844-0.773,1.195
		s-0.642,0.65-1.028,0.896s-0.819,0.434-1.296,0.562s-1,0.193-1.569,0.193c-0.574,0-1.097-0.069-1.569-0.206
		c-0.472-0.139-0.916-0.339-1.332-0.603s-0.785-0.586-1.107-0.967s-0.58-0.776-0.773-1.187s-0.362-0.912-0.505-1.508
		c-0.144-0.594-0.215-1.272-0.215-2.034c0-0.955,0.138-1.831,0.413-2.628s0.659-1.482,1.151-2.057s1.081-1.02,1.767-1.336
		s1.438-0.475,2.259-0.475c1.061,0,1.98,0.23,2.76,0.689c0.779,0.461,1.397,1.159,1.854,2.097L74.824,32.071z"/>
	<path fill="#333333" d="M87.16,36.281c0,0.727-0.107,1.392-0.321,1.995s-0.513,1.122-0.896,1.556s-0.838,0.771-1.362,1.011
		s-1.094,0.36-1.709,0.36s-1.184-0.12-1.705-0.36s-0.971-0.577-1.349-1.011s-0.674-0.952-0.888-1.556s-0.321-1.269-0.321-1.995
		c0-0.721,0.107-1.384,0.321-1.991c0.214-0.605,0.51-1.126,0.888-1.56s0.828-0.772,1.349-1.015c0.521-0.244,1.09-0.365,1.705-0.365
		s1.185,0.121,1.709,0.365c0.524,0.242,0.979,0.581,1.362,1.015s0.683,0.954,0.896,1.56C87.053,34.897,87.16,35.561,87.16,36.281z
		 M84.638,36.281c0-0.357-0.037-0.69-0.11-0.997c-0.073-0.309-0.183-0.576-0.33-0.805s-0.33-0.407-0.549-0.536
		s-0.479-0.193-0.778-0.193s-0.557,0.064-0.773,0.193s-0.397,0.306-0.541,0.532c-0.144,0.225-0.25,0.492-0.321,0.799
		c-0.07,0.309-0.105,0.644-0.105,1.007s0.035,0.7,0.105,1.011s0.177,0.577,0.321,0.8s0.324,0.397,0.541,0.522
		c0.217,0.127,0.475,0.189,0.773,0.189s0.558-0.068,0.778-0.207c0.22-0.137,0.403-0.323,0.549-0.558s0.256-0.504,0.33-0.809
		S84.638,36.609,84.638,36.281z"/>
	<path fill="#333333" d="M100.12,41.001v-5.115c0-0.422-0.031-0.773-0.093-1.055s-0.155-0.506-0.281-0.672
		c-0.126-0.168-0.284-0.286-0.475-0.356s-0.411-0.105-0.663-0.105c-0.258,0-0.482,0.035-0.673,0.105s-0.35,0.188-0.479,0.352
		s-0.225,0.382-0.286,0.655c-0.062,0.271-0.092,0.613-0.092,1.023v5.168h-2.487v-5.115c0-0.422-0.031-0.773-0.093-1.055
		s-0.153-0.506-0.276-0.672c-0.123-0.168-0.28-0.286-0.471-0.356s-0.414-0.105-0.672-0.105s-0.482,0.035-0.673,0.105
		s-0.35,0.188-0.479,0.352s-0.225,0.382-0.286,0.655c-0.062,0.271-0.092,0.613-0.092,1.023v5.168h-2.487v-9.448h2.487v0.624
		c0.217-0.223,0.492-0.416,0.826-0.58s0.747-0.246,1.239-0.246c0.615,0,1.117,0.094,1.507,0.281s0.758,0.495,1.104,0.923
		c0.164-0.164,0.338-0.319,0.522-0.466s0.396-0.273,0.633-0.383c0.237-0.107,0.507-0.194,0.809-0.259s0.649-0.097,1.042-0.097
		c0.604,0,1.119,0.102,1.547,0.303c0.428,0.203,0.776,0.49,1.046,0.861c0.27,0.373,0.466,0.825,0.589,1.358s0.185,1.134,0.185,1.802
		v5.326H100.12z"/>
	<path fill="#333333" d="M115.959,41.001v-5.115c0-0.422-0.03-0.773-0.092-1.055s-0.155-0.506-0.281-0.672
		c-0.126-0.168-0.284-0.286-0.475-0.356s-0.412-0.105-0.664-0.105c-0.258,0-0.481,0.035-0.672,0.105s-0.351,0.188-0.479,0.352
		s-0.224,0.382-0.285,0.655c-0.062,0.271-0.093,0.613-0.093,1.023v5.168h-2.487v-5.115c0-0.422-0.03-0.773-0.092-1.055
		s-0.154-0.506-0.277-0.672c-0.123-0.168-0.279-0.286-0.47-0.356s-0.415-0.105-0.673-0.105s-0.481,0.035-0.672,0.105
		s-0.351,0.188-0.479,0.352s-0.224,0.382-0.285,0.655c-0.062,0.271-0.093,0.613-0.093,1.023v5.168h-2.487v-9.448h2.487v0.624
		c0.217-0.223,0.492-0.416,0.826-0.58s0.747-0.246,1.239-0.246c0.615,0,1.118,0.094,1.508,0.281s0.757,0.495,1.103,0.923
		c0.164-0.164,0.339-0.319,0.523-0.466s0.396-0.273,0.633-0.383c0.237-0.107,0.507-0.194,0.809-0.259s0.648-0.097,1.041-0.097
		c0.604,0,1.119,0.102,1.547,0.303c0.428,0.203,0.776,0.49,1.046,0.861c0.27,0.373,0.466,0.825,0.589,1.358s0.185,1.134,0.185,1.802
		v5.326H115.959z"/>
	<path fill="#333333" d="M128.444,36.281c0,0.182-0.003,0.337-0.009,0.466s-0.015,0.24-0.026,0.334h-5.651
		c0.023,0.322,0.095,0.596,0.215,0.822c0.12,0.225,0.27,0.408,0.448,0.549s0.379,0.243,0.602,0.308s0.448,0.097,0.677,0.097
		c0.17,0,0.328-0.014,0.475-0.039c0.146-0.027,0.294-0.07,0.444-0.133c0.149-0.061,0.281-0.133,0.396-0.215s0.215-0.173,0.303-0.272
		l1.767,1.468c-0.188,0.246-0.41,0.465-0.668,0.654c-0.258,0.191-0.536,0.352-0.835,0.484c-0.299,0.131-0.608,0.23-0.927,0.299
		c-0.319,0.066-0.637,0.101-0.954,0.101c-0.521,0-0.989-0.063-1.402-0.188c-0.413-0.127-0.775-0.295-1.085-0.506
		s-0.586-0.455-0.826-0.734c-0.24-0.277-0.442-0.588-0.606-0.932c-0.164-0.342-0.293-0.727-0.387-1.15
		c-0.094-0.426-0.141-0.896-0.141-1.411c0-0.721,0.107-1.384,0.321-1.991c0.214-0.605,0.51-1.126,0.888-1.56
		s0.823-0.772,1.336-1.015c0.513-0.244,1.068-0.365,1.666-0.365c0.633,0,1.195,0.131,1.688,0.391
		c0.492,0.262,0.908,0.615,1.248,1.064c0.34,0.447,0.599,0.971,0.778,1.568S128.444,35.607,128.444,36.281z M126.027,35.209
		c-0.018-0.211-0.063-0.419-0.136-0.624s-0.179-0.387-0.316-0.545s-0.308-0.285-0.51-0.383c-0.202-0.096-0.444-0.145-0.725-0.145
		c-0.229,0-0.432,0.044-0.611,0.132s-0.334,0.208-0.466,0.36s-0.237,0.331-0.316,0.536s-0.13,0.428-0.154,0.668H126.027z"/>
	<path fill="#333333" d="M135.903,34.453c-0.199-0.182-0.419-0.329-0.659-0.444c-0.24-0.113-0.501-0.171-0.782-0.171
		c-0.586,0-0.999,0.169-1.239,0.505c-0.24,0.338-0.36,0.852-0.36,1.543v5.115h-2.487v-9.448h2.487v0.624
		c0.1-0.105,0.219-0.208,0.356-0.308s0.29-0.192,0.457-0.276c0.167-0.086,0.347-0.146,0.54-0.186
		c0.193-0.037,0.39-0.057,0.589-0.057c0.404,0,0.756,0.068,1.055,0.207c0.299,0.137,0.53,0.291,0.694,0.461L135.903,34.453z"/>
	<path fill="#333333" d="M145.645,39.094c-0.229,0.305-0.47,0.586-0.725,0.844s-0.538,0.48-0.848,0.668s-0.653,0.334-1.028,0.439
		s-0.797,0.158-1.266,0.158c-0.615,0-1.192-0.12-1.731-0.36s-1.009-0.577-1.411-1.011s-0.716-0.952-0.945-1.556
		s-0.343-1.269-0.343-1.995c0-0.721,0.113-1.384,0.338-1.991c0.226-0.605,0.541-1.126,0.945-1.56s0.883-0.772,1.437-1.015
		c0.554-0.244,1.159-0.365,1.815-0.365c0.797,0,1.506,0.174,2.127,0.523c0.621,0.348,1.16,0.871,1.617,1.568l-1.635,1.652
		c-0.141-0.199-0.286-0.381-0.435-0.545s-0.309-0.305-0.479-0.422s-0.357-0.209-0.562-0.277c-0.205-0.066-0.434-0.101-0.686-0.101
		c-0.299,0-0.568,0.06-0.809,0.181c-0.24,0.119-0.445,0.289-0.615,0.51c-0.17,0.219-0.302,0.484-0.396,0.795
		s-0.141,0.659-0.141,1.046c0,0.381,0.047,0.726,0.141,1.032c0.094,0.309,0.226,0.573,0.396,0.796s0.375,0.394,0.615,0.515
		c0.24,0.119,0.51,0.18,0.809,0.18c0.24,0,0.461-0.026,0.664-0.079s0.393-0.13,0.571-0.233c0.179-0.102,0.349-0.229,0.51-0.377
		c0.161-0.15,0.324-0.321,0.488-0.515L145.645,39.094z"/>
	<path fill="#333333" d="M150.007,29.355c0,0.193-0.038,0.376-0.114,0.55c-0.076,0.172-0.179,0.323-0.308,0.452
		s-0.28,0.231-0.453,0.308s-0.356,0.114-0.549,0.114s-0.376-0.038-0.549-0.114s-0.324-0.179-0.453-0.308s-0.231-0.28-0.308-0.452
		c-0.076-0.174-0.114-0.356-0.114-0.55s0.038-0.376,0.114-0.55c0.076-0.172,0.179-0.323,0.308-0.452s0.28-0.231,0.453-0.308
		s0.356-0.114,0.549-0.114s0.376,0.038,0.549,0.114s0.324,0.179,0.453,0.308s0.231,0.28,0.308,0.452
		C149.969,28.979,150.007,29.162,150.007,29.355z M147.335,41.001v-9.448h2.487v9.448H147.335z"/>
	<path fill="#333333" d="M157.329,41.001v-0.633c-0.111,0.117-0.237,0.225-0.378,0.32c-0.141,0.098-0.311,0.188-0.51,0.273
		c-0.199,0.084-0.401,0.146-0.606,0.184c-0.205,0.039-0.416,0.058-0.633,0.058c-0.439,0-0.87-0.069-1.292-0.206
		c-0.422-0.139-0.798-0.345-1.129-0.62s-0.598-0.624-0.8-1.046s-0.303-0.92-0.303-1.494c0-0.521,0.1-0.979,0.299-1.371
		s0.472-0.719,0.817-0.98c0.346-0.26,0.751-0.457,1.217-0.588c0.466-0.133,0.965-0.198,1.499-0.198c0.439,0,0.803,0.038,1.09,0.114
		s0.53,0.164,0.729,0.264v-0.466c0-0.352-0.117-0.64-0.352-0.866c-0.234-0.225-0.568-0.338-1.002-0.338
		c-0.551,0-0.999,0.039-1.345,0.119c-0.346,0.078-0.759,0.247-1.239,0.505l-0.958-1.723c0.598-0.352,1.165-0.599,1.701-0.743
		c0.536-0.143,1.15-0.215,1.841-0.215c0.574,0,1.097,0.073,1.569,0.22s0.876,0.36,1.213,0.642s0.598,0.627,0.782,1.037
		s0.277,0.882,0.277,1.415v6.337H157.329z M157.329,37.037c-0.105-0.064-0.214-0.122-0.325-0.171
		c-0.111-0.051-0.234-0.092-0.369-0.123c-0.135-0.033-0.286-0.058-0.453-0.075s-0.362-0.026-0.584-0.026
		c-0.469,0-0.825,0.104-1.068,0.312c-0.243,0.207-0.365,0.502-0.365,0.883c0,0.164,0.025,0.322,0.075,0.475s0.132,0.285,0.246,0.4
		c0.114,0.113,0.262,0.206,0.444,0.276s0.404,0.105,0.668,0.105c0.205,0,0.397-0.023,0.576-0.07s0.343-0.11,0.492-0.188
		c0.149-0.08,0.28-0.172,0.391-0.277s0.202-0.214,0.272-0.325V37.037z"/>
	<path fill="#333333" d="M162.176,41.001V29.118l2.487-1.239v13.122H162.176z"/>
	<path fill="#333333" d="M183.964,41.001h-2.769l-0.993-2.804h-4.605l-0.993,2.804h-2.698l4.825-12.604h2.443L183.964,41.001z
		 M179.341,35.798l-1.441-4.104l-1.441,4.104H179.341z"/>
	<path fill="#333333" d="M191.413,41.001v-5.115c0-0.744-0.119-1.295-0.356-1.652s-0.652-0.536-1.244-0.536
		c-0.258,0-0.486,0.035-0.686,0.105s-0.368,0.188-0.505,0.352s-0.243,0.382-0.316,0.655c-0.073,0.271-0.11,0.613-0.11,1.023v5.168
		h-2.487v-9.448h2.487v0.624c0.105-0.105,0.233-0.208,0.382-0.308s0.324-0.192,0.523-0.276c0.199-0.086,0.409-0.146,0.628-0.186
		c0.22-0.037,0.447-0.057,0.681-0.057c0.604,0,1.124,0.102,1.56,0.303c0.437,0.203,0.798,0.49,1.085,0.861
		c0.287,0.373,0.5,0.825,0.637,1.358s0.207,1.134,0.207,1.802v5.326H191.413z"/>
	<path fill="#333333" d="M201.29,41.001v-0.633c-0.111,0.117-0.237,0.225-0.378,0.32c-0.141,0.098-0.311,0.188-0.51,0.273
		c-0.199,0.084-0.401,0.146-0.606,0.184c-0.205,0.039-0.416,0.058-0.633,0.058c-0.439,0-0.87-0.069-1.292-0.206
		c-0.422-0.139-0.798-0.345-1.129-0.62s-0.598-0.624-0.8-1.046s-0.304-0.92-0.304-1.494c0-0.521,0.1-0.979,0.299-1.371
		s0.472-0.719,0.817-0.98c0.346-0.26,0.752-0.457,1.218-0.588c0.466-0.133,0.965-0.198,1.498-0.198c0.439,0,0.803,0.038,1.09,0.114
		s0.53,0.164,0.729,0.264v-0.466c0-0.352-0.117-0.64-0.352-0.866c-0.234-0.225-0.568-0.338-1.002-0.338
		c-0.551,0-0.999,0.039-1.345,0.119c-0.346,0.078-0.759,0.247-1.239,0.505l-0.958-1.723c0.598-0.352,1.165-0.599,1.701-0.743
		c0.536-0.143,1.149-0.215,1.841-0.215c0.574,0,1.098,0.073,1.569,0.22s0.876,0.36,1.213,0.642s0.598,0.627,0.782,1.037
		s0.276,0.882,0.276,1.415v6.337H201.29z M201.29,37.037c-0.105-0.064-0.214-0.122-0.325-0.171
		c-0.111-0.051-0.234-0.092-0.369-0.123c-0.135-0.033-0.285-0.058-0.452-0.075s-0.362-0.026-0.585-0.026
		c-0.469,0-0.824,0.104-1.067,0.312c-0.243,0.207-0.365,0.502-0.365,0.883c0,0.164,0.025,0.322,0.075,0.475s0.132,0.285,0.246,0.4
		c0.114,0.113,0.262,0.206,0.443,0.276s0.404,0.105,0.668,0.105c0.205,0,0.397-0.023,0.576-0.07s0.343-0.11,0.492-0.188
		c0.149-0.08,0.279-0.172,0.391-0.277s0.202-0.214,0.272-0.325V37.037z"/>
	<path fill="#333333" d="M206.137,41.001V29.118l2.487-1.239v13.122H206.137z"/>
	<path fill="#333333" d="M215.045,44.332h-2.443l1.257-3.331l-3.674-9.448h2.733l2.162,6.363l2.162-6.363h2.663L215.045,44.332z"/>
	<path fill="#333333" d="M227.074,40.623c-0.205,0.164-0.48,0.302-0.826,0.413s-0.712,0.167-1.099,0.167
		c-0.381,0-0.727-0.07-1.037-0.211s-0.576-0.339-0.796-0.593c-0.22-0.256-0.39-0.556-0.51-0.901s-0.18-0.727-0.18-1.143v-4.465
		h-1.582v-2.338h1.582v-2.435l2.487-1.239v3.674h2.268v2.338h-2.268v3.797c0,0.229,0.021,0.416,0.062,0.562s0.1,0.263,0.176,0.347
		c0.076,0.086,0.171,0.145,0.285,0.176c0.114,0.033,0.245,0.049,0.392,0.049c0.223,0,0.44-0.056,0.654-0.167
		s0.465-0.296,0.752-0.554L227.074,40.623z"/>
	<path fill="#333333" d="M232.293,29.355c0,0.193-0.038,0.376-0.114,0.55c-0.076,0.172-0.179,0.323-0.308,0.452
		s-0.28,0.231-0.453,0.308s-0.356,0.114-0.549,0.114s-0.376-0.038-0.549-0.114s-0.324-0.179-0.453-0.308s-0.231-0.28-0.308-0.452
		c-0.076-0.174-0.114-0.356-0.114-0.55s0.038-0.376,0.114-0.55c0.076-0.172,0.179-0.323,0.308-0.452s0.28-0.231,0.453-0.308
		s0.356-0.114,0.549-0.114s0.376,0.038,0.549,0.114s0.324,0.179,0.453,0.308s0.231,0.28,0.308,0.452
		C232.255,28.979,232.293,29.162,232.293,29.355z M229.621,41.001v-9.448h2.487v9.448H229.621z"/>
	<path fill="#333333" d="M242.31,39.094c-0.229,0.305-0.47,0.586-0.725,0.844s-0.538,0.48-0.849,0.668s-0.653,0.334-1.028,0.439
		s-0.797,0.158-1.266,0.158c-0.615,0-1.192-0.12-1.731-0.36s-1.009-0.577-1.41-1.011s-0.717-0.952-0.945-1.556
		s-0.343-1.269-0.343-1.995c0-0.721,0.113-1.384,0.339-1.991c0.226-0.605,0.54-1.126,0.944-1.56s0.884-0.772,1.438-1.015
		c0.554-0.244,1.158-0.365,1.814-0.365c0.797,0,1.506,0.174,2.127,0.523c0.621,0.348,1.16,0.871,1.617,1.568l-1.635,1.652
		c-0.141-0.199-0.285-0.381-0.435-0.545s-0.31-0.305-0.479-0.422s-0.357-0.209-0.562-0.277c-0.205-0.066-0.434-0.101-0.686-0.101
		c-0.299,0-0.568,0.06-0.809,0.181c-0.24,0.119-0.445,0.289-0.615,0.51c-0.17,0.219-0.302,0.484-0.396,0.795
		s-0.141,0.659-0.141,1.046c0,0.381,0.047,0.726,0.141,1.032c0.094,0.309,0.226,0.573,0.396,0.796s0.375,0.394,0.615,0.515
		c0.24,0.119,0.51,0.18,0.809,0.18c0.24,0,0.462-0.026,0.664-0.079s0.393-0.13,0.571-0.233c0.179-0.102,0.349-0.229,0.51-0.377
		c0.161-0.15,0.323-0.321,0.487-0.515L242.31,39.094z"/>
	<path fill="#333333" d="M251.12,32.273l-0.791,1.96c-0.469-0.252-0.945-0.441-1.429-0.566c-0.483-0.127-0.924-0.189-1.322-0.189
		c-0.439,0-0.762,0.043-0.967,0.127c-0.205,0.086-0.308,0.248-0.308,0.488c0,0.1,0.023,0.188,0.07,0.264s0.141,0.152,0.281,0.229
		s0.338,0.161,0.593,0.255s0.594,0.208,1.016,0.343c0.422,0.141,0.823,0.291,1.204,0.453c0.381,0.16,0.715,0.355,1.002,0.584
		s0.516,0.506,0.686,0.83c0.17,0.326,0.255,0.726,0.255,1.2c0,0.545-0.102,1.005-0.304,1.38s-0.478,0.678-0.826,0.91
		c-0.349,0.23-0.756,0.399-1.222,0.505s-0.965,0.158-1.498,0.158c-0.721,0-1.43-0.099-2.127-0.294
		c-0.697-0.197-1.31-0.465-1.837-0.805l0.835-1.89c0.504,0.281,1.023,0.495,1.56,0.642s1.106,0.22,1.71,0.22
		c0.469,0,0.797-0.058,0.984-0.171c0.188-0.115,0.281-0.298,0.281-0.55c0-0.105-0.023-0.2-0.07-0.286
		c-0.047-0.084-0.125-0.164-0.233-0.236c-0.108-0.074-0.25-0.146-0.426-0.216s-0.396-0.144-0.659-0.22
		c-0.568-0.17-1.081-0.34-1.538-0.51s-0.849-0.373-1.174-0.611c-0.325-0.236-0.575-0.523-0.751-0.861
		c-0.176-0.336-0.264-0.754-0.264-1.252c0-0.492,0.092-0.916,0.276-1.27c0.185-0.355,0.444-0.646,0.778-0.875
		s0.732-0.396,1.195-0.506c0.463-0.107,0.973-0.162,1.529-0.162c0.598,0,1.202,0.084,1.814,0.25
		C250.058,31.769,250.616,31.992,251.12,32.273z"/>
	<path fill="#333333" d="M76.854,55.187c0,0.598-0.097,1.143-0.29,1.635s-0.492,0.916-0.896,1.27
		c-0.404,0.355-0.917,0.629-1.538,0.822s-1.362,0.29-2.224,0.29c-0.527,0-1.034-0.054-1.521-0.163
		c-0.486-0.107-0.94-0.26-1.362-0.457c-0.422-0.195-0.804-0.436-1.147-0.721c-0.343-0.283-0.631-0.602-0.866-0.953l1.819-1.617
		c0.439,0.516,0.935,0.885,1.485,1.107s1.128,0.334,1.731,0.334c0.428,0,0.773-0.031,1.037-0.092
		c0.264-0.062,0.485-0.146,0.664-0.256c0.179-0.107,0.306-0.235,0.382-0.382s0.114-0.36,0.114-0.642
		c0-0.199-0.035-0.377-0.105-0.531c-0.07-0.156-0.207-0.298-0.409-0.427s-0.486-0.252-0.853-0.369s-0.848-0.243-1.446-0.378
		c-0.58-0.135-1.112-0.29-1.595-0.466s-0.898-0.404-1.244-0.686s-0.615-0.632-0.809-1.05c-0.193-0.42-0.29-0.939-0.29-1.561
		c0-0.568,0.117-1.081,0.352-1.538s0.555-0.845,0.962-1.165c0.407-0.318,0.885-0.563,1.433-0.733s1.132-0.255,1.753-0.255
		c0.48,0,0.936,0.043,1.367,0.127c0.431,0.086,0.853,0.225,1.266,0.418s0.763,0.398,1.05,0.615s0.589,0.489,0.905,0.817
		l-1.819,1.767c-0.24-0.246-0.451-0.437-0.633-0.571s-0.39-0.259-0.624-0.374c-0.234-0.113-0.48-0.201-0.738-0.264
		c-0.258-0.061-0.545-0.092-0.861-0.092c-0.34,0-0.624,0.033-0.853,0.102c-0.229,0.066-0.413,0.153-0.554,0.259
		s-0.242,0.226-0.303,0.36s-0.092,0.272-0.092,0.413c0,0.199,0.038,0.369,0.114,0.51s0.211,0.265,0.404,0.374
		c0.193,0.107,0.453,0.211,0.778,0.307c0.325,0.098,0.74,0.204,1.244,0.321c0.715,0.17,1.31,0.347,1.784,0.532
		c0.475,0.184,0.894,0.42,1.257,0.707s0.649,0.65,0.857,1.09S76.854,54.583,76.854,55.187z"/>
	<path fill="#333333" d="M86.705,54.281c0,0.182-0.003,0.337-0.009,0.466s-0.015,0.24-0.026,0.334h-5.651
		c0.023,0.322,0.095,0.596,0.215,0.822c0.12,0.225,0.27,0.408,0.448,0.549s0.379,0.243,0.602,0.308s0.448,0.097,0.677,0.097
		c0.17,0,0.328-0.014,0.475-0.039c0.146-0.027,0.294-0.07,0.444-0.133c0.149-0.061,0.281-0.133,0.396-0.215s0.215-0.173,0.303-0.272
		l1.767,1.468c-0.188,0.246-0.41,0.465-0.668,0.654c-0.258,0.191-0.536,0.352-0.835,0.484c-0.299,0.131-0.608,0.23-0.927,0.299
		c-0.319,0.066-0.637,0.101-0.954,0.101c-0.521,0-0.989-0.063-1.402-0.188c-0.413-0.127-0.775-0.295-1.085-0.506
		s-0.586-0.455-0.826-0.734c-0.24-0.277-0.442-0.588-0.606-0.932c-0.164-0.342-0.293-0.727-0.387-1.15
		c-0.094-0.426-0.141-0.896-0.141-1.411c0-0.721,0.107-1.384,0.321-1.991c0.214-0.605,0.51-1.126,0.888-1.56
		s0.823-0.772,1.336-1.015c0.513-0.244,1.068-0.365,1.666-0.365c0.633,0,1.195,0.131,1.688,0.391
		c0.492,0.262,0.908,0.615,1.248,1.064c0.34,0.447,0.599,0.971,0.778,1.568S86.705,53.607,86.705,54.281z M84.288,53.209
		c-0.018-0.211-0.063-0.419-0.136-0.624s-0.179-0.387-0.316-0.545s-0.308-0.285-0.51-0.383c-0.202-0.096-0.444-0.145-0.725-0.145
		c-0.229,0-0.432,0.044-0.611,0.132s-0.334,0.208-0.466,0.36s-0.237,0.331-0.316,0.536s-0.13,0.428-0.154,0.668H84.288z"/>
	<path fill="#333333" d="M94.164,52.453c-0.199-0.182-0.419-0.329-0.659-0.444c-0.24-0.113-0.501-0.171-0.782-0.171
		c-0.586,0-0.999,0.169-1.239,0.505c-0.24,0.338-0.36,0.852-0.36,1.543v5.115h-2.487v-9.448h2.487v0.624
		c0.1-0.105,0.218-0.208,0.356-0.308s0.29-0.192,0.457-0.276c0.167-0.086,0.347-0.146,0.541-0.186
		c0.193-0.037,0.39-0.057,0.589-0.057c0.404,0,0.756,0.068,1.055,0.207c0.299,0.137,0.53,0.291,0.694,0.461L94.164,52.453z"/>
	<path fill="#333333" d="M101.831,59.001h-2.558l-3.401-9.448h2.733l1.986,6.231l1.978-6.231h2.663L101.831,59.001z"/>
	<path fill="#333333" d="M109.461,47.355c0,0.193-0.038,0.376-0.114,0.55c-0.076,0.172-0.179,0.323-0.308,0.452
		s-0.28,0.231-0.453,0.308s-0.355,0.114-0.549,0.114s-0.377-0.038-0.55-0.114s-0.323-0.179-0.452-0.308s-0.231-0.28-0.308-0.452
		c-0.076-0.174-0.114-0.356-0.114-0.55s0.038-0.376,0.114-0.55c0.076-0.172,0.179-0.323,0.308-0.452s0.279-0.231,0.452-0.308
		s0.356-0.114,0.55-0.114s0.376,0.038,0.549,0.114s0.324,0.179,0.453,0.308s0.231,0.28,0.308,0.452
		C109.423,46.979,109.461,47.162,109.461,47.355z M106.789,59.001v-9.448h2.487v9.448H106.789z"/>
	<path fill="#333333" d="M119.478,57.094c-0.229,0.305-0.47,0.586-0.725,0.844s-0.538,0.48-0.848,0.668s-0.653,0.334-1.028,0.439
		s-0.797,0.158-1.266,0.158c-0.615,0-1.192-0.12-1.731-0.36s-1.009-0.577-1.411-1.011s-0.716-0.952-0.945-1.556
		s-0.343-1.269-0.343-1.995c0-0.721,0.113-1.384,0.338-1.991c0.226-0.605,0.541-1.126,0.945-1.56s0.883-0.772,1.437-1.015
		c0.554-0.244,1.159-0.365,1.815-0.365c0.797,0,1.506,0.174,2.127,0.523c0.621,0.348,1.16,0.871,1.617,1.568l-1.635,1.652
		c-0.141-0.199-0.286-0.381-0.435-0.545s-0.309-0.305-0.479-0.422s-0.357-0.209-0.562-0.277c-0.205-0.066-0.434-0.101-0.686-0.101
		c-0.299,0-0.568,0.06-0.809,0.181c-0.24,0.119-0.445,0.289-0.615,0.51c-0.17,0.219-0.302,0.484-0.396,0.795
		s-0.141,0.659-0.141,1.046c0,0.381,0.047,0.726,0.141,1.032c0.094,0.309,0.226,0.573,0.396,0.796s0.375,0.394,0.615,0.515
		c0.24,0.119,0.51,0.18,0.809,0.18c0.24,0,0.461-0.026,0.664-0.079s0.393-0.13,0.571-0.233c0.179-0.102,0.349-0.229,0.51-0.377
		c0.161-0.15,0.324-0.321,0.488-0.515L119.478,57.094z"/>
	<path fill="#333333" d="M128.781,54.281c0,0.182-0.003,0.337-0.009,0.466s-0.015,0.24-0.026,0.334h-5.651
		c0.023,0.322,0.095,0.596,0.215,0.822c0.12,0.225,0.27,0.408,0.448,0.549s0.379,0.243,0.602,0.308s0.448,0.097,0.677,0.097
		c0.17,0,0.328-0.014,0.475-0.039c0.146-0.027,0.294-0.07,0.444-0.133c0.149-0.061,0.281-0.133,0.396-0.215s0.215-0.173,0.303-0.272
		l1.767,1.468c-0.188,0.246-0.41,0.465-0.668,0.654c-0.258,0.191-0.536,0.352-0.835,0.484c-0.299,0.131-0.608,0.23-0.927,0.299
		c-0.319,0.066-0.637,0.101-0.954,0.101c-0.521,0-0.989-0.063-1.402-0.188c-0.413-0.127-0.775-0.295-1.085-0.506
		s-0.586-0.455-0.826-0.734c-0.24-0.277-0.442-0.588-0.606-0.932c-0.164-0.342-0.293-0.727-0.387-1.15
		c-0.094-0.426-0.141-0.896-0.141-1.411c0-0.721,0.107-1.384,0.321-1.991c0.214-0.605,0.51-1.126,0.888-1.56
		s0.823-0.772,1.336-1.015c0.513-0.244,1.068-0.365,1.666-0.365c0.633,0,1.195,0.131,1.688,0.391
		c0.492,0.262,0.908,0.615,1.248,1.064c0.34,0.447,0.599,0.971,0.778,1.568S128.781,53.607,128.781,54.281z M126.364,53.209
		c-0.018-0.211-0.063-0.419-0.136-0.624s-0.179-0.387-0.316-0.545s-0.308-0.285-0.51-0.383c-0.202-0.096-0.444-0.145-0.725-0.145
		c-0.229,0-0.432,0.044-0.611,0.132s-0.334,0.208-0.466,0.36s-0.237,0.331-0.316,0.536s-0.13,0.428-0.154,0.668H126.364z"/>
	<path fill="#333333" d="M137.68,50.273l-0.791,1.96c-0.469-0.252-0.945-0.441-1.428-0.566c-0.483-0.127-0.924-0.189-1.323-0.189
		c-0.439,0-0.762,0.043-0.967,0.127c-0.205,0.086-0.308,0.248-0.308,0.488c0,0.1,0.023,0.188,0.07,0.264s0.141,0.152,0.281,0.229
		s0.338,0.161,0.593,0.255s0.593,0.208,1.015,0.343c0.422,0.141,0.823,0.291,1.204,0.453c0.381,0.16,0.715,0.355,1.002,0.584
		s0.516,0.506,0.686,0.83c0.17,0.326,0.255,0.726,0.255,1.2c0,0.545-0.101,1.005-0.303,1.38s-0.478,0.678-0.826,0.91
		c-0.349,0.23-0.756,0.399-1.222,0.505s-0.965,0.158-1.499,0.158c-0.721,0-1.43-0.099-2.127-0.294
		c-0.697-0.197-1.31-0.465-1.837-0.805l0.835-1.89c0.504,0.281,1.024,0.495,1.56,0.642s1.106,0.22,1.709,0.22
		c0.469,0,0.797-0.058,0.984-0.171c0.188-0.115,0.281-0.298,0.281-0.55c0-0.105-0.023-0.2-0.07-0.286
		c-0.047-0.084-0.125-0.164-0.233-0.236c-0.108-0.074-0.25-0.146-0.426-0.216s-0.396-0.144-0.659-0.22
		c-0.568-0.17-1.081-0.34-1.538-0.51s-0.848-0.373-1.173-0.611c-0.325-0.236-0.576-0.523-0.751-0.861
		c-0.176-0.336-0.264-0.754-0.264-1.252c0-0.492,0.092-0.916,0.277-1.27c0.185-0.355,0.444-0.646,0.778-0.875
		s0.732-0.396,1.195-0.506c0.463-0.107,0.973-0.162,1.529-0.162c0.598,0,1.203,0.084,1.815,0.25
		C136.618,49.769,137.176,49.992,137.68,50.273z"/>
	<path fill="#333333" d="M153.491,59.001V53.71h-5.168v5.291h-2.522V46.397h2.522v4.825h5.168v-4.825h2.522v12.604H153.491z"/>
	<path fill="#333333" d="M164.363,59.001v-0.633c-0.217,0.229-0.516,0.425-0.896,0.589s-0.82,0.246-1.318,0.246
		c-1.137,0-2.003-0.366-2.598-1.099s-0.892-1.808-0.892-3.226v-5.326h2.487v5.106c0,0.762,0.12,1.318,0.36,1.67
		s0.653,0.527,1.239,0.527c0.592,0,1.009-0.18,1.252-0.541c0.243-0.359,0.365-0.892,0.365-1.595v-5.168h2.487v9.448H164.363z"/>
	<path fill="#333333" d="M177.382,54.396c0,0.703-0.082,1.35-0.246,1.938c-0.164,0.59-0.403,1.096-0.716,1.521
		c-0.313,0.424-0.697,0.756-1.151,0.992c-0.454,0.238-0.974,0.356-1.56,0.356c-0.416,0-0.797-0.071-1.143-0.216
		c-0.346-0.143-0.63-0.317-0.853-0.522v0.536h-2.487V47.118l2.487-1.239v4.263c0.117-0.105,0.245-0.205,0.382-0.299
		s0.289-0.178,0.453-0.25c0.164-0.074,0.343-0.133,0.536-0.176c0.193-0.045,0.401-0.066,0.624-0.066c0.504,0,0.979,0.097,1.424,0.29
		s0.835,0.495,1.169,0.905s0.598,0.934,0.791,1.568C177.286,52.751,177.382,53.511,177.382,54.396z M174.86,54.448
		c0-0.914-0.138-1.602-0.413-2.061c-0.275-0.461-0.677-0.69-1.204-0.69c-0.193,0-0.365,0.019-0.514,0.058
		c-0.149,0.037-0.284,0.092-0.404,0.162s-0.23,0.154-0.33,0.25c-0.1,0.098-0.193,0.204-0.281,0.321v3.56
		c0.094,0.129,0.189,0.238,0.286,0.33c0.097,0.09,0.221,0.176,0.374,0.254c0.152,0.08,0.309,0.137,0.47,0.172
		s0.341,0.053,0.541,0.053c0.48,0,0.847-0.202,1.099-0.606S174.86,55.245,174.86,54.448z"/>
</g>
</svg>
